<svg version="1.0" xmlns="http://www.w3.org/2000/svg"
 width="300.000000pt" height="300.000000pt" viewBox="0 0 300.000000 300.000000"
 preserveAspectRatio="xMidYMid meet">
<g transform="translate(0.000000,300.000000) scale(0.100000,-0.100000)"
fill="#FFFFFF" stroke="none">
<path d="M684 2415 c-63 -31 -124 -90 -124 -120 0 -26 -51 -75 -108 -104 -52
-26 -190 -69 -251 -77 -28 -4 -51 -12 -51 -18 0 -6 16 -45 36 -86 71 -149 172
-262 303 -340 83 -49 180 -85 193 -72 6 6 12 39 15 74 5 58 2 69 -25 119 -38
68 -47 114 -32 170 18 65 45 99 81 99 16 0 29 -4 29 -10 0 -16 50 -44 60 -34
6 6 -6 25 -29 49 l-38 41 40 44 c22 25 34 36 27 25 -8 -11 -23 -30 -33 -42
-19 -22 -19 -22 19 -66 l38 -43 75 26 c42 14 78 28 80 30 3 3 -25 34 -62 69
-59 57 -69 62 -84 50 -10 -7 -5 1 10 18 l29 31 -71 70 -71 69 -38 -19 c-20
-11 -52 -34 -69 -51 -18 -17 -33 -26 -33 -19 0 26 106 102 142 102 19 0 148
-132 148 -151 0 -8 -6 -21 -12 -28 -7 -8 -8 -11 -2 -8 6 3 39 -23 74 -58 45
-46 72 -65 89 -65 23 0 19 7 -42 68 -44 45 -67 75 -67 91 0 28 -154 191 -180
191 -9 0 -38 -11 -66 -25z m110 -114 l58 -59 -23 -15 c-66 -41 -99 -33 -132
33 -18 36 -27 46 -36 37 -8 -8 -11 -8 -11 0 0 14 57 63 74 63 6 0 38 -27 70
-59z m-178 -53 c-32 -49 -148 -123 -233 -148 -24 -7 -43 -18 -43 -24 1 -48
152 -227 229 -270 34 -19 34 -19 26 0 -14 33 -18 151 -6 187 15 44 74 113 115
133 26 14 23 9 -20 -32 -90 -86 -109 -204 -50 -310 30 -53 25 -53 -64 -1 -82
48 -179 150 -223 235 -38 71 -40 92 -11 92 38 0 165 65 225 114 35 30 65 53
67 51 2 -2 -3 -14 -12 -27z m-288 -227 c59 -121 198 -251 305 -283 39 -12 39
-12 34 -55 -2 -24 -7 -46 -10 -49 -9 -9 -138 55 -201 100 -35 25 -86 70 -115
101 -55 61 -126 173 -136 217 -6 22 -3 27 17 31 67 13 71 10 106 -62z"/>
<path d="M2152 2356 c-56 -56 -82 -91 -82 -107 0 -16 -23 -46 -67 -91 -60 -60
-65 -68 -43 -68 17 0 45 21 91 66 37 36 69 62 73 56 3 -5 -23 -37 -58 -70
l-63 -60 81 -30 81 -30 39 38 c33 33 37 40 27 59 -7 11 -9 21 -7 21 3 0 10 -9
17 -21 9 -18 6 -26 -27 -60 -32 -33 -35 -39 -20 -45 11 -4 26 2 44 19 43 40
61 38 96 -11 27 -38 31 -53 31 -105 0 -52 -6 -72 -34 -121 -31 -55 -33 -65
-28 -124 3 -35 9 -68 15 -74 6 -6 30 -2 67 11 184 65 361 234 439 419 28 65
27 82 -3 82 -35 0 -188 43 -246 70 -77 34 -135 84 -135 116 0 43 -132 144
-191 144 -8 0 -52 -38 -97 -84z m156 25 c45 -23 92 -65 92 -82 0 -7 -15 1 -33
19 -18 17 -49 40 -70 50 l-37 18 -69 -68 -70 -68 42 -41 42 -40 -47 32 c-27
18 -48 40 -48 48 0 19 129 151 148 151 7 0 29 -9 50 -19z m68 -101 c96 -88
155 -126 252 -160 34 -13 62 -28 62 -34 0 -6 -17 -41 -37 -76 -49 -83 -162
-196 -241 -238 -34 -18 -62 -31 -62 -29 0 3 11 29 25 59 51 108 27 219 -63
299 -32 29 -38 36 -17 24 104 -61 150 -166 121 -275 -8 -30 -13 -56 -12 -58 9
-8 130 94 170 144 45 55 86 123 86 142 0 5 -19 14 -42 21 -24 7 -69 27 -100
43 -52 28 -77 50 -164 143 l-27 29 -11 -29 c-31 -84 -60 -99 -126 -65 l-43 22
59 59 c32 32 64 59 70 59 7 0 52 -36 100 -80z m423 -205 c8 -8 -14 -61 -51
-122 -46 -76 -129 -166 -203 -218 -60 -43 -193 -111 -201 -102 -2 2 -7 24 -10
48 l-6 45 40 12 c106 32 250 167 305 285 l32 68 44 -5 c25 -4 47 -8 50 -11z"/>
<path d="M1330 2143 c-143 -32 -487 -127 -554 -153 l-29 -11 6 -192 c7 -243
34 -401 95 -552 l20 -51 -58 -52 c-32 -28 -61 -52 -65 -52 -3 0 -43 -33 -88
-72 -46 -40 -102 -84 -126 -98 -155 -91 -163 -105 -109 -185 58 -86 160 -147
222 -131 18 4 33 21 51 55 38 75 81 136 117 163 18 14 63 54 100 89 51 48 65
68 58 79 -7 12 -13 11 -34 -9 -14 -14 -28 -22 -31 -19 -3 3 6 13 20 22 14 9
25 21 25 26 0 5 -17 34 -37 65 l-37 54 -43 -35 c-57 -47 -55 -28 3 26 l45 42
44 -71 c126 -204 327 -391 531 -494 l51 -26 95 58 c218 133 378 290 485 480
l31 53 46 -42 c25 -23 46 -47 46 -52 0 -6 -18 6 -40 26 -22 20 -42 36 -44 36
-2 0 -20 -28 -41 -62 l-38 -61 29 -24 c16 -12 25 -23 20 -23 -6 0 -20 10 -33
22 -20 19 -26 20 -33 8 -9 -14 0 -24 156 -171 71 -67 75 -71 113 -146 40 -80
68 -90 147 -54 84 38 170 141 162 194 -3 21 -37 48 -139 107 -24 14 -80 57
-124 96 -44 39 -85 73 -92 75 -6 2 -34 26 -63 53 l-52 48 36 107 c57 173 69
259 70 490 l1 204 -55 19 c-157 55 -645 180 -692 177 -7 0 -83 -16 -168 -36z
m530 -88 c74 -20 182 -50 239 -67 l104 -32 -6 -166 c-12 -326 -62 -503 -205
-719 -93 -141 -278 -310 -443 -405 l-46 -26 -88 55 c-164 103 -275 205 -391
359 -74 98 -66 85 -107 186 -46 113 -64 170 -82 265 -19 99 -37 322 -33 395
l3 54 75 24 c130 41 328 93 479 126 l146 33 110 -24 c61 -13 171 -39 245 -58z
m-1020 -1015 c-6 -11 -16 -17 -22 -14 -7 5 -5 12 7 21 25 18 28 17 15 -7z
m-23 -36 c35 -33 39 -40 16 -24 -34 22 -47 10 -20 -20 6 -8 -7 3 -30 25 -24
21 -43 34 -43 28 0 -15 -121 -116 -129 -107 -6 6 137 143 151 144 3 0 28 -21
55 -46z m1363 25 c0 -14 -17 -10 -23 5 -4 10 -1 13 9 9 7 -3 14 -9 14 -14z
m140 -48 c41 -38 72 -72 69 -75 -9 -10 -140 104 -133 116 4 7 3 8 -4 4 -7 -4
-12 -12 -12 -18 0 -13 -30 -48 -41 -48 -4 0 -5 10 -2 21 6 21 5 21 -23 4 -21
-13 -18 -6 15 24 24 23 46 41 50 41 3 -1 40 -32 81 -69z m130 -112 c0 -4 -15
-7 -34 -6 -33 1 -34 1 -19 24 15 22 17 23 34 7 11 -10 19 -20 19 -25z m-1829
0 l22 -31 -22 12 c-13 6 -25 9 -28 6 -3 -3 -14 -1 -25 5 -15 8 -17 13 -7 25
18 22 36 17 60 -17z m59 -34 l35 -40 -33 30 c-19 17 -38 39 -44 50 -6 11 -7
16 -2 10 5 -5 25 -28 44 -50z m1691 37 c-6 -11 -27 -32 -48 -47 l-38 -28 45
46 c48 51 56 56 41 29z m-1884 -42 c-44 -28 -47 -32 -36 -53 26 -49 54 -81 97
-108 60 -38 85 -37 111 4 11 17 21 28 21 23 0 -16 -42 -76 -53 -76 -7 0 -34
11 -62 24 -78 36 -152 130 -130 166 7 11 74 49 89 50 6 0 -11 -14 -37 -30z
m2040 5 c46 -28 51 -41 29 -83 -29 -55 -134 -131 -183 -132 -11 0 -53 60 -53
76 0 5 10 -6 21 -23 24 -37 45 -41 92 -17 60 30 117 98 117 138 0 8 -19 26
-42 40 -24 14 -39 26 -34 26 5 0 29 -11 53 -25z m-1987 -3 c0 -5 21 -29 46
-55 28 -27 43 -50 39 -57 -13 -21 -49 -28 -76 -14 -31 16 -89 71 -89 85 0 9
58 49 73 49 4 0 7 -4 7 -8z m1965 -9 c19 -9 35 -22 35 -28 0 -20 -77 -88 -91
-80 -7 5 -10 4 -6 -2 9 -15 -14 -22 -39 -13 -35 13 -36 37 -4 60 16 12 37 34
47 50 9 17 18 30 20 30 1 0 18 -8 38 -17z m-1815 -90 c0 -7 -86 55 -101 73 -8
9 12 -2 44 -26 31 -24 57 -45 57 -47z m1712 65 c-11 -13 -36 -31 -54 -41 -32
-17 -32 -17 -8 0 13 10 36 28 50 40 33 29 39 29 12 1z"/>
<path d="M1455 2093 c-202 -45 -413 -100 -565 -147 l-45 -13 3 -124 c5 -198
34 -375 78 -475 l16 -39 10 30 c5 17 6 46 4 65 -4 24 -2 30 4 20 10 -17 10
-17 34 34 31 69 101 170 165 239 150 159 342 260 550 287 75 10 110 9 216 -5
18 -3 8 4 -25 16 -49 17 -51 19 -16 13 22 -3 78 -18 125 -33 72 -23 86 -31 92
-53 3 -14 3 -90 -2 -169 -8 -154 -30 -258 -73 -349 -22 -47 -26 -42 -8 10 3 8
-16 -14 -43 -49 -26 -36 -69 -86 -95 -112 -101 -101 -276 -193 -414 -218 -96
-18 -235 -14 -307 9 -35 10 -65 17 -67 15 -7 -7 152 -167 210 -212 32 -24 90
-64 130 -88 l72 -45 45 26 c81 46 227 162 291 231 87 92 139 166 192 270 84
164 115 301 125 554 l6 155 -164 47 c-190 54 -463 117 -499 116 -14 -1 -34 -3
-45 -6z m-68 -1240 c103 -67 114 -69 171 -38 27 15 83 51 123 81 l74 55 -58
-56 c-32 -31 -88 -76 -124 -100 -62 -41 -68 -43 -93 -30 -47 24 -184 131 -225
176 l-40 43 55 -46 c30 -25 83 -63 117 -85z"/>
<path d="M1600 1920 c-180 -49 -341 -156 -462 -308 -100 -126 -159 -266 -161
-380 -1 -81 8 -99 61 -126 187 -94 423 -89 627 14 155 79 261 184 335 335 52
105 74 191 74 295 1 114 -12 139 -84 164 -84 30 -290 33 -390 6z m380 -34 c24
-9 48 -22 52 -29 4 -7 7 -37 6 -67 l-1 -55 -6 60 c-5 51 -10 62 -31 72 -27 12
-171 35 -179 28 -2 -3 8 -14 23 -26 59 -47 156 -210 156 -262 -1 -38 -46 -152
-81 -203 -149 -218 -429 -348 -693 -323 -102 10 -125 25 -31 21 41 -2 75 -2
75 0 0 24 -25 68 -38 68 -12 0 -13 3 -5 8 9 6 3 25 -25 71 -37 64 -117 161
-132 161 -10 0 -38 -93 -51 -170 -12 -74 -19 -89 -19 -38 0 101 70 280 140
358 22 25 26 26 11 6 -12 -16 -21 -32 -21 -36 0 -4 28 -36 63 -72 53 -56 168
-229 173 -262 1 -6 7 -30 13 -53 l11 -41 58 13 c177 42 321 132 439 274 56 68
60 82 42 145 l-11 38 -70 -76 c-114 -124 -252 -217 -393 -266 -89 -31 -89 -23
0 13 102 43 136 60 210 110 83 56 158 121 207 179 l41 50 -30 62 c-36 72 -112
168 -173 216 l-41 33 -72 -20 c-40 -12 -81 -24 -92 -27 -11 -3 0 3 24 15 23
11 73 27 110 35 87 18 279 12 341 -10z m-345 -76 c4 -6 15 -8 25 -5 21 7 35
-9 23 -27 -4 -7 -6 -24 -4 -38 l3 -25 -24 21 c-29 27 -50 21 -42 -12 7 -28 -2
-31 -27 -8 -21 19 -42 9 -34 -16 8 -25 -9 -34 -34 -18 -27 17 -51 -3 -32 -26
15 -18 -4 -33 -23 -17 -21 18 -48 3 -36 -19 12 -22 -4 -37 -23 -21 -8 6 -18 6
-27 1 -11 -7 -12 -11 0 -24 17 -21 4 -33 -20 -19 -25 16 -49 -9 -30 -32 18
-22 2 -40 -19 -21 -13 12 -20 13 -29 4 -18 -18 -40 6 -23 26 8 10 9 16 1 21
-21 13 -10 34 18 32 21 -2 27 3 28 18 2 34 3 36 23 26 21 -12 52 11 31 24 -17
10 0 26 21 20 27 -9 43 3 28 21 -15 18 15 31 35 15 10 -8 16 -8 25 3 9 11 9
15 -1 19 -10 3 -10 7 -1 17 9 10 15 10 26 1 19 -15 48 -3 45 18 -2 12 4 15 29
14 17 -2 35 2 38 7 3 6 1 10 -4 10 -6 0 -11 5 -11 10 0 13 37 13 45 0z m-588
-622 c-3 -8 -6 -5 -6 6 -1 11 2 17 5 13 3 -3 4 -12 1 -19z m106 -25 c-13 -2
-33 -2 -45 0 -13 2 -3 4 22 4 25 0 35 -2 23 -4z"/>
<path d="M2030 1925 c0 -2 10 -10 23 -16 20 -11 21 -11 8 4 -13 16 -31 23 -31
12z"/>
</g>
</svg>